<svg height="512" viewBox="0 0 64 64" width="512" xmlns="http://www.w3.org/2000/svg"><g id="logistics-package_box-transport-truck" data-name="logistics-package box-transport-truck"><path d="m32 9h7v3h-7z" fill="#ffde55"/><path d="m21 9h7v3h-7z" fill="#ffde55"/><path d="m21 12h18v15h-18z" fill="#ffeb99"/><path d="m32 27h7v3h-7z" fill="#ffde55"/><path d="m21 27h7v3h-7z" fill="#ffde55"/><path d="m21 30h18v15h-18z" fill="#ffeb99"/><path d="m14 27h7v3h-7z" fill="#ff9811"/><path d="m3 27h7v3h-7z" fill="#ff9811"/><path d="m3 30h18v15h-18z" fill="#ffda44"/><path d="m24 39h4v2h-4z" fill="#fff"/><path d="m6 39h4v2h-4z" fill="#fff"/><path d="m24 21h4v2h-4z" fill="#fff"/><rect fill="#003f8a" height="5" rx="1" width="58" x="3" y="49"/><circle cx="50" cy="55" fill="#2d2d30" r="6"/><circle cx="14" cy="55" fill="#2d2d30" r="6"/><path d="m4 45h34v4h-34z" fill="#787680"/><path d="m39 45v4h-5l2-4z" fill="#787680"/><g fill="#2d2d30"><path d="m36 45-2 4h-4l2-4h3z"/><path d="m28 45-2 4h-4l2-4z"/><path d="m20 45-2 4h-4l2-4z"/><path d="m12 45-2 4h-4l2-4z"/></g><circle cx="14" cy="55" fill="#898890" r="2"/><circle cx="50" cy="55" fill="#898890" r="2"/><path d="m39 22h22v4h-22z" fill="#e0e0e2"/><path d="m44 40h16v9h-16z" fill="#e0e0e2"/><path d="m39 26h5v23h-5z" fill="#c6c5ca"/><path d="m57 26 1 14h-14v-14z" fill="#2488ff"/><path d="m57 26h-13v13a13 13 0 0 1 13-13z" fill="#7cb8ff"/><path d="m40 23h7v1h-7z" fill="#ececee"/><path d="m3 30h18v1h-18z" fill="#cc7400"/><path d="m14 9h7v3h-7z" fill="#ff9811"/><path d="m3 9h7v3h-7z" fill="#ff9811"/><path d="m3 12h18v15h-18z" fill="#ffda44"/><path d="m6 21h4v2h-4z" fill="#fff"/><path d="m3 12h18v1h-18z" fill="#cc7400"/><path d="m14 12v2l-4 1v-3-3h4z" fill="#d80027"/><path d="m14 30v2l-4 1v-3-3h4z" fill="#d80027"/><path d="m21 12h18v1h-18z" fill="#ffb655"/><path d="m21 30h18v1h-18z" fill="#ffb655"/><path d="m32 12v2l-4 1v-3-3h4z" fill="#d80027"/><path d="m32 30v2l-4 1v-3-3h4z" fill="#d80027"/></g></svg>